<?xml version="1.0" standalone="no"?>
<!DOCTYPE svg PUBLIC "-//W3C//DTD SVG 20010904//EN"
 "http://www.w3.org/TR/2001/REC-SVG-20010904/DTD/svg10.dtd">
<svg version="1.0" xmlns="http://www.w3.org/2000/svg"
 width="201.000000pt" height="201.000000pt" viewBox="0 0 201.000000 201.000000"
 preserveAspectRatio="xMidYMid meet">
<metadata>
Created by potrace 1.14, written by Peter Selinger 2001-2017
</metadata>
<g transform="translate(0.000000,201.000000) scale(0.100000,-0.100000)"
fill="#000000" stroke="none">
<path d="M850 1995 c-272 -59 -482 -224 -594 -467 -57 -123 -70 -186 -70 -338
1 -146 10 -191 73 -341 120 -289 436 -657 714 -832 35 -23 51 -16 179 81 292
220 543 559 643 872 55 168 41 378 -36 549 -30 68 -42 81 -53 62 -3 -5 -75
-50 -159 -101 -198 -119 -224 -141 -230 -201 -8 -66 -40 -155 -104 -285 -63
-128 -70 -176 -39 -290 21 -80 20 -122 -3 -160 -18 -29 -74 -64 -103 -64 -18
1 -68 46 -107 97 -52 69 -107 200 -140 337 -18 70 -59 203 -92 295 -64 176
-79 249 -57 291 7 14 38 38 68 53 55 29 56 29 200 24 l144 -6 71 47 c72 48
275 245 275 267 0 15 -109 65 -205 95 -84 26 -288 34 -375 15z"/>
</g>
</svg>
