<svg id="Logo" xmlns="http://www.w3.org/2000/svg" viewBox="0 0 165 200.85"><defs><style>.cls-1{fill:#228be6;fill-rule:evenodd;}</style></defs><path class="cls-1" d="M82.48,0a82.18,82.18,0,0,1,43,12.06c-10.41,12.33-21.23,23.84-34.93,31.1-4.93,2.6-28.09-6.31-40.14,5.61-9,9.32,7.81,31.65,13.42,60.56s21.1,42.74,23.7,43.29c6,1.78,14.39-5.62,13.84-13.42s-7.81-20.56-.27-33.3,14.52-31.78,12.6-36.85c6.58-8.08,25.62-16.3,40.55-27.13A81.05,81.05,0,0,1,165,82.48c0,35.75-37.81,92.47-82.47,118.37C44.94,179.2,0,123,0,82.48A82.56,82.56,0,0,1,82.48,0Z" transform="translate(0 0)"/></svg>