<svg id="visual" viewBox="0 0 960 540" width="960" height="540" xmlns="http://www.w3.org/2000/svg" xmlns:xlink="http://www.w3.org/1999/xlink" version="1.1"><rect x="0" y="0" width="960" height="540" fill="#ffffff"></rect><defs><linearGradient id="grad1_0" x1="43.8%" y1="0%" x2="100%" y2="100%"><stop offset="14.444444444444446%" stop-color="#228be6" stop-opacity="1"></stop><stop offset="85.55555555555554%" stop-color="#228be6" stop-opacity="1"></stop></linearGradient></defs><defs><linearGradient id="grad1_1" x1="43.8%" y1="0%" x2="100%" y2="100%"><stop offset="14.444444444444446%" stop-color="#228be6" stop-opacity="1"></stop><stop offset="85.55555555555554%" stop-color="#a8c3f3" stop-opacity="1"></stop></linearGradient></defs><defs><linearGradient id="grad1_2" x1="43.8%" y1="0%" x2="100%" y2="100%"><stop offset="14.444444444444446%" stop-color="#ffffff" stop-opacity="1"></stop><stop offset="85.55555555555554%" stop-color="#a8c3f3" stop-opacity="1"></stop></linearGradient></defs><defs><linearGradient id="grad2_0" x1="0%" y1="0%" x2="56.3%" y2="100%"><stop offset="14.444444444444446%" stop-color="#228be6" stop-opacity="1"></stop><stop offset="85.55555555555554%" stop-color="#228be6" stop-opacity="1"></stop></linearGradient></defs><defs><linearGradient id="grad2_1" x1="0%" y1="0%" x2="56.3%" y2="100%"><stop offset="14.444444444444446%" stop-color="#a8c3f3" stop-opacity="1"></stop><stop offset="85.55555555555554%" stop-color="#228be6" stop-opacity="1"></stop></linearGradient></defs><defs><linearGradient id="grad2_2" x1="0%" y1="0%" x2="56.3%" y2="100%"><stop offset="14.444444444444446%" stop-color="#a8c3f3" stop-opacity="1"></stop><stop offset="85.55555555555554%" stop-color="#ffffff" stop-opacity="1"></stop></linearGradient></defs><g transform="translate(960, 0)"><path d="M0 378C-51.4 371 -102.8 364 -140.4 339.1C-178.1 314.1 -201.8 271.1 -238.3 238.3C-274.7 205.4 -323.8 182.7 -349.2 144.7C-374.6 106.6 -376.3 53.3 -378 0L0 0Z" fill="#d5e0f9"></path><path d="M0 252C-34.3 247.3 -68.6 242.7 -93.6 226C-118.7 209.4 -134.6 180.8 -158.9 158.9C-183.2 137 -215.9 121.8 -232.8 96.4C-249.7 71.1 -250.9 35.5 -252 0L0 0Z" fill="#75a6ed"></path><path d="M0 126C-17.1 123.7 -34.3 121.3 -46.8 113C-59.4 104.7 -67.3 90.4 -79.4 79.4C-91.6 68.5 -107.9 60.9 -116.4 48.2C-124.9 35.5 -125.4 17.8 -126 0L0 0Z" fill="#228be6"></path></g><g transform="translate(0, 540)"><path d="M0 -378C54.6 -378.6 109.2 -379.1 144.7 -349.2C180.1 -319.3 196.3 -258.9 217.8 -217.8C239.3 -176.7 266.2 -154.8 293.8 -121.7C321.4 -88.6 349.7 -44.3 378 0L0 0Z" fill="#d5e0f9"></path><path d="M0 -252C36.4 -252.4 72.8 -252.8 96.4 -232.8C120 -212.9 130.8 -172.6 145.2 -145.2C159.5 -117.8 177.5 -103.2 195.9 -81.1C214.3 -59.1 233.1 -29.5 252 0L0 0Z" fill="#75a6ed"></path><path d="M0 -126C18.2 -126.2 36.4 -126.4 48.2 -116.4C60 -106.4 65.4 -86.3 72.6 -72.6C79.8 -58.9 88.7 -51.6 97.9 -40.6C107.1 -29.5 116.6 -14.8 126 0L0 0Z" fill="#228be6"></path></g></svg>