<svg id="visual" viewBox="0 0 450 900" width="450" height="900" xmlns="http://www.w3.org/2000/svg" xmlns:xlink="http://www.w3.org/1999/xlink" version="1.1"><rect x="0" y="0" width="450" height="900" fill="#ffffff"></rect><defs><linearGradient id="grad1_0" x1="0%" y1="0%" x2="100%" y2="100%"><stop offset="30%" stop-color="#228be6" stop-opacity="1"></stop><stop offset="70%" stop-color="#228be6" stop-opacity="1"></stop></linearGradient></defs><defs><linearGradient id="grad1_1" x1="0%" y1="0%" x2="100%" y2="100%"><stop offset="30%" stop-color="#228be6" stop-opacity="1"></stop><stop offset="70%" stop-color="#a8c3f3" stop-opacity="1"></stop></linearGradient></defs><defs><linearGradient id="grad1_2" x1="0%" y1="0%" x2="100%" y2="100%"><stop offset="30%" stop-color="#ffffff" stop-opacity="1"></stop><stop offset="70%" stop-color="#a8c3f3" stop-opacity="1"></stop></linearGradient></defs><defs><linearGradient id="grad2_0" x1="0%" y1="0%" x2="100%" y2="100%"><stop offset="30%" stop-color="#228be6" stop-opacity="1"></stop><stop offset="70%" stop-color="#228be6" stop-opacity="1"></stop></linearGradient></defs><defs><linearGradient id="grad2_1" x1="0%" y1="0%" x2="100%" y2="100%"><stop offset="30%" stop-color="#a8c3f3" stop-opacity="1"></stop><stop offset="70%" stop-color="#228be6" stop-opacity="1"></stop></linearGradient></defs><defs><linearGradient id="grad2_2" x1="0%" y1="0%" x2="100%" y2="100%"><stop offset="30%" stop-color="#a8c3f3" stop-opacity="1"></stop><stop offset="70%" stop-color="#ffffff" stop-opacity="1"></stop></linearGradient></defs><g transform="translate(450, 0)"><path d="M0 315C-42.7 312.2 -85.4 309.3 -120.5 291C-155.7 272.7 -183.2 239 -207.2 207.2C-231.1 175.4 -251.5 145.6 -268.8 111.4C-286.2 77.2 -300.6 38.6 -315 0L0 0Z" fill="#d5e0f9"></path><path d="M0 210C-28.5 208.1 -56.9 206.2 -80.4 194C-103.8 181.8 -122.2 159.3 -138.1 138.1C-154.1 116.9 -167.7 97 -179.2 74.2C-190.8 51.4 -200.4 25.7 -210 0L0 0Z" fill="#75a6ed"></path><path d="M0 105C-14.2 104.1 -28.5 103.1 -40.2 97C-51.9 90.9 -61.1 79.7 -69.1 69.1C-77 58.5 -83.8 48.5 -89.6 37.1C-95.4 25.7 -100.2 12.9 -105 0L0 0Z" fill="#228be6"></path></g><g transform="translate(0, 900)"><path d="M0 -315C37.3 -303.3 74.6 -291.6 115.6 -279C156.5 -266.4 201 -253 222.7 -222.7C244.5 -192.5 243.4 -145.5 255 -105.6C266.6 -65.7 290.8 -32.9 315 0L0 0Z" fill="#d5e0f9"></path><path d="M0 -210C24.9 -202.2 49.8 -194.4 77 -186C104.3 -177.6 134 -168.6 148.5 -148.5C163 -128.3 162.3 -97 170 -70.4C177.7 -43.8 193.9 -21.9 210 0L0 0Z" fill="#75a6ed"></path><path d="M0 -105C12.4 -101.1 24.9 -97.2 38.5 -93C52.2 -88.8 67 -84.3 74.2 -74.2C81.5 -64.2 81.1 -48.5 85 -35.2C88.9 -21.9 96.9 -11 105 0L0 0Z" fill="#228be6"></path></g></svg>